<svg xmlns="http://www.w3.org/2000/svg" width="512" height="512" viewBox="0 0 512 512">
  <defs>
    <linearGradient id="bg" x1="0%" y1="0%" x2="100%" y2="100%">
      <stop offset="0%" stop-color="#0f1628"/>
      <stop offset="100%" stop-color="#070c18"/>
    </linearGradient>
    <linearGradient id="lg" x1="0%" y1="0%" x2="100%" y2="100%">
      <stop offset="0%" stop-color="#60a5fa"/>
      <stop offset="55%" stop-color="#818cf8"/>
      <stop offset="100%" stop-color="#a78bfa"/>
    </linearGradient>
    <linearGradient id="gold" x1="0%" y1="0%" x2="100%" y2="100%">
      <stop offset="0%" stop-color="#fbbf24"/>
      <stop offset="100%" stop-color="#f59e0b"/>
    </linearGradient>
    <linearGradient id="shine" x1="0%" y1="0%" x2="55%" y2="100%">
      <stop offset="0%" stop-color="#ffffff" stop-opacity="0.08"/>
      <stop offset="60%" stop-color="#ffffff" stop-opacity="0"/>
    </linearGradient>
    <radialGradient id="glow" cx="38%" cy="28%" r="58%">
      <stop offset="0%" stop-color="#4f8ef7" stop-opacity="0.18"/>
      <stop offset="100%" stop-color="#4f8ef7" stop-opacity="0"/>
    </radialGradient>
    <filter id="s">
      <feDropShadow dx="0" dy="8" stdDeviation="18" flood-color="#5b8ff9" flood-opacity="0.4"/>
    </filter>
  </defs>
  <rect width="512" height="512" rx="116" fill="url(#bg)"/>
  <rect width="512" height="512" rx="116" fill="url(#glow)"/>
  <rect x="2" y="2" width="508" height="508" rx="114" fill="none" stroke="url(#lg)" stroke-width="3" opacity="0.25"/>
  <g opacity="0.035" stroke="#fff" stroke-width="1.2">
    <line x1="0" y1="128" x2="512" y2="128"/><line x1="0" y1="256" x2="512" y2="256"/>
    <line x1="0" y1="384" x2="512" y2="384"/><line x1="128" y1="0" x2="128" y2="512"/>
    <line x1="256" y1="0" x2="256" y2="512"/><line x1="384" y1="0" x2="384" y2="512"/>
  </g>
  <text x="256" y="330" text-anchor="middle"
    font-family="-apple-system,'SF Pro Display','Helvetica Neue',Arial,sans-serif"
    font-size="285" font-weight="800" fill="url(#lg)" filter="url(#s)" letter-spacing="-5">S</text>
  <circle cx="340" cy="347" r="23" fill="url(#gold)" opacity="0.92"/>
  <circle cx="340" cy="347" r="12" fill="#fef9c3" opacity="0.55"/>
  <rect width="512" height="512" rx="116" fill="url(#shine)"/>
  <rect x="70" y="34" width="180" height="5" rx="2.5" fill="white" opacity="0.07"/>
</svg>
