<svg xmlns="http://www.w3.org/2000/svg" width="192" height="192" viewBox="0 0 192 192">
  <defs>
    <linearGradient id="bg" x1="0%" y1="0%" x2="100%" y2="100%">
      <stop offset="0%" stop-color="#0f1628"/>
      <stop offset="100%" stop-color="#070c18"/>
    </linearGradient>
    <linearGradient id="lg" x1="0%" y1="0%" x2="100%" y2="100%">
      <stop offset="0%" stop-color="#60a5fa"/>
      <stop offset="55%" stop-color="#818cf8"/>
      <stop offset="100%" stop-color="#a78bfa"/>
    </linearGradient>
    <linearGradient id="gold" x1="0%" y1="0%" x2="100%" y2="100%">
      <stop offset="0%" stop-color="#fbbf24"/>
      <stop offset="100%" stop-color="#f59e0b"/>
    </linearGradient>
    <linearGradient id="shine" x1="0%" y1="0%" x2="55%" y2="100%">
      <stop offset="0%" stop-color="#ffffff" stop-opacity="0.08"/>
      <stop offset="60%" stop-color="#ffffff" stop-opacity="0"/>
    </linearGradient>
    <radialGradient id="glow" cx="38%" cy="28%" r="58%">
      <stop offset="0%" stop-color="#4f8ef7" stop-opacity="0.18"/>
      <stop offset="100%" stop-color="#4f8ef7" stop-opacity="0"/>
    </radialGradient>
    <filter id="s">
      <feDropShadow dx="0" dy="3" stdDeviation="7" flood-color="#5b8ff9" flood-opacity="0.4"/>
    </filter>
  </defs>
  <rect width="192" height="192" rx="44" fill="url(#bg)"/>
  <rect width="192" height="192" rx="44" fill="url(#glow)"/>
  <rect x="1" y="1" width="190" height="190" rx="43" fill="none" stroke="url(#lg)" stroke-width="1.5" opacity="0.25"/>
  <g opacity="0.035" stroke="#fff" stroke-width="0.6">
    <line x1="0" y1="48" x2="192" y2="48"/><line x1="0" y1="96" x2="192" y2="96"/>
    <line x1="0" y1="144" x2="192" y2="144"/><line x1="48" y1="0" x2="48" y2="192"/>
    <line x1="96" y1="0" x2="96" y2="192"/><line x1="144" y1="0" x2="144" y2="192"/>
  </g>
  <text x="96" y="124" text-anchor="middle"
    font-family="-apple-system,'SF Pro Display','Helvetica Neue',Arial,sans-serif"
    font-size="106" font-weight="800" fill="url(#lg)" filter="url(#s)" letter-spacing="-2">S</text>
  <circle cx="127" cy="130" r="8.5" fill="url(#gold)" opacity="0.92"/>
  <circle cx="127" cy="130" r="4.5" fill="#fef9c3" opacity="0.55"/>
  <rect width="192" height="192" rx="44" fill="url(#shine)"/>
  <rect x="26" y="13" width="68" height="2" rx="1" fill="white" opacity="0.07"/>
</svg>
